<?xml version="1.0" encoding="UTF-8"?>
<svg version="1.1" xmlns="http://www.w3.org/2000/svg" width="512" height="512">
<path d="M0 0 C1.01545898 0.19867676 2.03091797 0.39735352 3.07714844 0.60205078 C52.9758035 10.58327711 96.53871388 34.88580573 133 70 C133.7940625 70.7528125 134.588125 71.505625 135.40625 72.28125 C140.75597303 77.46114055 145.38660506 83.16405541 150 89 C151.19109375 90.48306641 151.19109375 90.48306641 152.40625 91.99609375 C175.32205725 121.03970389 191.22147176 154.85685587 199.6875 190.8125 C199.97306763 191.99936401 199.97306763 191.99936401 200.2644043 193.21020508 C204.22851721 210.89052902 205.555362 228.61292655 205.4375 246.6875 C205.43293793 248.18546112 205.43293793 248.18546112 205.42828369 249.71368408 C205.35621635 265.78341917 204.43972751 281.25213186 201 297 C200.78037598 298.02625488 200.56075195 299.05250977 200.33447266 300.10986328 C191.83138831 338.85817193 174.61772522 375.56726438 149 406 C148.57138672 406.51739746 148.14277344 407.03479492 147.70117188 407.56787109 C137.18164284 420.2564129 126.03816903 431.86528878 113 442 C111.52660156 443.18142578 111.52660156 443.18142578 110.0234375 444.38671875 C70.29759115 476.0035908 18.37047678 496.93437939 -32.79296875 497.203125 C-33.69337387 497.21018463 -34.59377899 497.21724426 -35.52146912 497.22451782 C-72.98691069 497.45161655 -72.98691069 497.45161655 -90 494 C-91.01545898 493.80132324 -92.03091797 493.60264648 -93.07714844 493.39794922 C-142.9758035 483.41672289 -186.53871388 459.11419427 -223 424 C-223.7940625 423.2471875 -224.588125 422.494375 -225.40625 421.71875 C-230.75597303 416.53885945 -235.38660506 410.83594459 -240 405 C-240.7940625 404.01128906 -241.588125 403.02257812 -242.40625 402.00390625 C-266.9776499 370.86198961 -283.32468106 334.48759715 -291.25 295.6875 C-291.47671387 294.57942993 -291.47671387 294.57942993 -291.70800781 293.44897461 C-292.18439803 290.97158418 -292.60252786 288.49133778 -293 286 C-293.17805176 284.88423584 -293.35610352 283.76847168 -293.53955078 282.61889648 C-295.19998488 270.98027732 -295.3987437 259.43103747 -295.375 247.6875 C-295.37445618 246.6738739 -295.37391235 245.6602478 -295.37335205 244.61590576 C-295.33347417 228.41878779 -294.46747801 212.87491635 -291 197 C-290.78037598 195.97374512 -290.56075195 194.94749023 -290.33447266 193.89013672 C-279.82149525 145.98280374 -255.85138923 104.15003587 -222 69 C-221.2471875 68.2059375 -220.494375 67.411875 -219.71875 66.59375 C-214.53885945 61.24402697 -208.83594459 56.61339494 -203 52 C-202.01128906 51.2059375 -201.02257812 50.411875 -200.00390625 49.59375 C-167.66655102 24.07913264 -130.33332447 7.86607287 -90 0 C-89.17274414 -0.16661133 -88.34548828 -0.33322266 -87.49316406 -0.50488281 C-59.91781494 -5.80488028 -27.50199116 -5.57960557 0 0 Z " fill="#7646A9" transform="translate(301,9)"/>
<path d="M0 0 C0.70463558 -0.00297112 1.40927116 -0.00594224 2.13525933 -0.0090034 C4.50816876 -0.01770954 6.88102786 -0.01920026 9.25395203 -0.02069092 C10.95054737 -0.02531776 12.64714166 -0.03034223 14.34373474 -0.03573608 C18.96157295 -0.04887545 23.57939661 -0.05530809 28.1972506 -0.05974674 C31.08081462 -0.06267513 33.96437463 -0.0667795 36.84793663 -0.07125092 C45.86558461 -0.08493019 54.88322347 -0.09459461 63.90088111 -0.09845281 C74.31841161 -0.1029341 84.73581093 -0.12048349 95.15330154 -0.1494534 C103.20006528 -0.17105548 111.24679209 -0.18115631 119.29358453 -0.18249393 C124.10209864 -0.18354306 128.91048952 -0.18947374 133.71897316 -0.20731354 C138.2423765 -0.22376865 142.76556364 -0.22596222 147.28898621 -0.21717453 C148.94944016 -0.21640277 150.60990562 -0.22076519 152.27033043 -0.23063278 C154.53708693 -0.2433138 156.80307329 -0.23749697 159.06982422 -0.22705078 C160.33837911 -0.22851734 161.60693399 -0.2299839 162.91392994 -0.2314949 C167.54121892 0.28823364 170.06225572 2.12699812 173.50553894 5.12715149 C176.14317942 9.7484749 175.78269457 14.11947697 175.7429657 19.35308838 C175.74997498 20.48534851 175.75698425 21.61760864 175.76420593 22.78417969 C175.78181038 26.52688118 175.77015284 30.26882645 175.75663757 34.01153564 C175.75933195 36.61318609 175.76321391 39.21483555 175.76823425 41.81648254 C175.77413283 47.26970939 175.76593708 52.72265226 175.74687195 58.17584229 C175.72511474 64.47156088 175.73214762 70.76676106 175.75417757 77.06246704 C175.77455097 83.12857309 175.77235066 89.19445018 175.76065063 95.26057625 C175.75798269 97.8373732 175.76125545 100.41418339 175.77056885 102.99096489 C175.78073192 106.59379943 175.76523419 110.1956403 175.7429657 113.79840088 C175.75106262 114.86301041 175.75915955 115.92761993 175.76750183 117.02449036 C175.70062586 122.86747939 175.360072 126.64586239 171.22538757 131.14044189 C167.35187564 134.22198758 164.38931419 134.50859967 159.50737 134.48101807 C158.85315063 134.48145615 158.19893127 134.48189423 157.52488708 134.48234558 C155.37656627 134.48026645 153.22903969 134.45697851 151.08085632 134.43341064 C149.58585028 134.42781153 148.09083872 134.42354292 146.5958252 134.42054749 C142.67153072 134.40912341 138.74757226 134.37967762 134.82341003 134.34643555 C130.81487065 134.31568183 126.80627669 134.30203085 122.7976532 134.28692627 C114.94006035 134.25480515 107.08280455 134.20205754 99.22538757 134.14044189 C99.22538757 141.40044189 99.22538757 148.66044189 99.22538757 156.14044189 C102.52538757 156.14044189 105.82538757 156.14044189 109.22538757 156.14044189 C112.45289544 160.44378571 112.65700109 161.50742465 112.66288757 166.64044189 C112.69189148 168.32653564 112.69189148 168.32653564 112.72148132 170.04669189 C112.11362007 173.83744867 111.19670195 174.78206475 108.22538757 177.14044189 C105.63858032 177.64164734 105.63858032 177.64164734 102.67826843 177.64215088 C101.56709152 177.65153183 100.45591461 177.66091278 99.31106567 177.670578 C97.51875267 177.65372704 97.51875267 177.65372704 95.69023132 177.63653564 C94.46002762 177.63799088 93.22982391 177.63944611 91.96234131 177.64094543 C89.36241792 177.6392857 86.76248478 177.62771626 84.16264343 177.60699463 C81.49346392 177.5876067 78.82673756 177.57728261 76.15776062 177.58648682 C72.31418203 177.59905295 68.47128512 177.59042563 64.62773132 177.57403564 C63.43083176 177.57697128 62.23393219 177.57990692 61.00076294 177.58293152 C59.89273819 177.57024734 58.78471344 177.55756317 57.64311218 177.54449463 C56.66700485 177.53909164 55.69089752 177.53368866 54.68521118 177.52812195 C52.22538757 177.14044189 52.22538757 177.14044189 50.41387939 175.84565735 C48.37689548 172.92304872 48.75430083 169.57239649 48.78788757 166.14044189 C48.75791687 165.05376221 48.75791687 165.05376221 48.7273407 163.94512939 C48.73023929 160.80305072 48.81399319 158.67914759 50.75273132 156.14044189 C53.22538757 155.14044189 53.22538757 155.14044189 61.22538757 155.14044189 C61.22538757 148.21044189 61.22538757 141.28044189 61.22538757 134.14044189 C59.1968866 134.16662598 57.16838562 134.19281006 55.07841492 134.2197876 C48.36506461 134.30275547 41.65169124 134.3579127 34.93796349 134.39950275 C30.86861861 134.42556115 26.79980043 134.46088894 22.73075867 134.51763916 C18.80146254 134.5720954 14.87267195 134.60189069 10.9430275 134.61482811 C9.44630096 134.6240438 7.9496011 134.64204053 6.45309067 134.66909218 C-6.74799002 134.89816092 -6.74799002 134.89816092 -10.61592102 131.85992432 C-13.73839911 127.92627996 -15.02021154 125.30610881 -15.05549622 120.26475525 C-15.0669165 119.28491669 -15.07833679 118.30507812 -15.09010315 117.29554749 C-15.09233887 116.2268895 -15.09457458 115.15823151 -15.09687805 114.05718994 C-15.10680786 112.92668213 -15.11673767 111.79617432 -15.12696838 110.63140869 C-15.1561989 106.88830132 -15.169813 103.14536344 -15.18086243 99.40216064 C-15.192366 96.80147802 -15.20388146 94.20079544 -15.21540833 91.60011292 C-15.23373851 86.84234977 -15.24634079 82.0846544 -15.25240183 77.32686204 C-15.2613598 70.33443926 -15.29644485 63.3427991 -15.35440302 56.35061425 C-15.40292676 50.28507146 -15.41829425 44.21985065 -15.42175293 38.15412331 C-15.42780565 35.57811026 -15.44386182 33.00210051 -15.47012329 30.42621422 C-15.50425798 26.82083314 -15.50048274 23.21735481 -15.48750305 19.61187744 C-15.50593262 18.54929214 -15.52436218 17.48670685 -15.54335022 16.391922 C-15.4739197 10.23137623 -14.63871871 6.80836571 -10.25736237 2.36605549 C-6.95938612 -0.3599905 -4.19154689 0.00983762 0 0 Z " fill="#A847AE" transform="translate(217.7746124267578,85.85955810546875)"/>
<path d="M0 0 C2.13015344 1.62564341 3.36100461 2.92898681 5 5 C5.70125 5.83660156 6.4025 6.67320312 7.125 7.53515625 C12.8317214 14.73791052 12.8317214 14.73791052 13.5 19.75 C10.09248472 27.13294977 2.44035132 31.19759666 -4.03125 35.75415039 C-9.3269148 39.48574995 -14.51385233 43.35143125 -19.6875 47.25 C-28.62278734 53.9775363 -37.61003014 60.63068642 -46.62353516 67.25292969 C-49.8607828 69.63280889 -53.09467886 72.01721624 -56.32788086 74.40258789 C-57.93016982 75.58334936 -59.53382871 76.76225432 -61.13891602 77.93920898 C-64.83531144 80.6513867 -68.51172178 83.38158451 -72.140625 86.18359375 C-79.12818521 91.53637774 -85.36484724 95.67037246 -94 98 C-94.99 98.33 -95.98 98.66 -97 99 C-99.0289867 99.03255483 -101.05920976 99.00098137 -103.08740234 98.93554688 C-104.35036133 98.90131119 -105.61332031 98.8670755 -106.91455078 98.83180237 C-107.93140961 98.803026 -107.93140961 98.803026 -108.96881104 98.77366829 C-156.55224212 97.33685125 -156.55224212 97.33685125 -199.90380859 115.22827148 C-203.30618267 117.17520641 -206.21204798 118.07521518 -210 119 C-210.44988281 118.42894531 -210.89976562 117.85789062 -211.36328125 117.26953125 C-215.7642469 111.72202144 -220.27263927 106.28225654 -224.8605957 100.88989258 C-228.51649336 96.58761357 -232.10099365 92.23222422 -235.6484375 87.83984375 C-237.41263188 85.70932993 -239.20078228 83.63117452 -241.0390625 81.56640625 C-241.55146484 80.98375 -242.06386719 80.40109375 -242.59179688 79.80078125 C-243.59569954 78.66259861 -244.60972844 77.53324929 -245.63476562 76.4140625 C-249.02047967 72.55155515 -249.02047967 72.55155515 -248.9315033 70.15525818 C-247.57476335 67.01611217 -245.4921597 65.09407348 -243.08813477 62.66821289 C-242.3219709 61.88934471 -242.3219709 61.88934471 -241.54032898 61.09474182 C-239.84846697 59.37947542 -238.14562153 57.67564375 -236.44140625 55.97265625 C-235.2558044 54.77995021 -234.070501 53.58694743 -232.88548279 52.3936615 C-230.39636252 49.89108507 -227.9013704 47.3945386 -225.40258789 44.90161133 C-222.21834451 41.72323677 -219.05264203 38.52709155 -215.89167881 35.32558537 C-213.44580489 32.85370471 -210.9883861 30.39355052 -208.52766228 27.93646049 C-207.35685375 26.76396996 -206.18997605 25.58753938 -205.02731514 24.40696907 C-196.69566503 15.96129014 -188.24846484 7.95137944 -175.71008301 7.84225464 C-174.99622437 7.84113678 -174.28236572 7.84001892 -173.546875 7.83886719 C-172.79047729 7.83390228 -172.03407959 7.82893738 -171.25476074 7.82382202 C-168.75316458 7.80921892 -166.25163177 7.80240271 -163.75 7.796875 C-162.01269529 7.79112352 -160.2753906 7.78536579 -158.53808594 7.77960205 C-154.89648136 7.76909838 -151.25489884 7.76325107 -147.61328125 7.75976562 C-142.94231673 7.75427181 -138.27164238 7.73022235 -133.60076904 7.70179367 C-130.01317484 7.68319391 -126.42565105 7.67796319 -122.8380127 7.67642975 C-121.11558439 7.67339838 -119.39315746 7.66535358 -117.67077637 7.65224457 C-115.26466568 7.63523383 -112.85927103 7.63705142 -110.453125 7.64355469 C-109.38233704 7.62973251 -109.38233704 7.62973251 -108.28991699 7.6156311 C-105.39276711 7.64022317 -103.46415505 7.67217069 -101.05744934 9.37200928 C-99.54717329 11.69714705 -99.62787071 13.46198643 -99.63671875 16.21875 C-99.63768555 17.74048828 -99.63768555 17.74048828 -99.63867188 19.29296875 C-99.65478516 20.35128906 -99.67089844 21.40960938 -99.6875 22.5 C-99.68427734 23.55832031 -99.68105469 24.61664063 -99.67773438 25.70703125 C-99.73289025 33.59933537 -99.73289025 33.59933537 -102 37 C-104.10073853 37.39872742 -104.10073853 37.39872742 -106.72509766 37.43237305 C-108.19639633 37.46206429 -108.19639633 37.46206429 -109.69741821 37.49235535 C-111.28965714 37.50194023 -111.28965714 37.50194023 -112.9140625 37.51171875 C-113.99883881 37.52966995 -115.08361511 37.54762115 -116.20126343 37.56611633 C-119.67580239 37.6204231 -123.15020242 37.65418068 -126.625 37.6875 C-128.97658192 37.72065504 -131.32814546 37.75514298 -133.6796875 37.79101562 C-139.45300041 37.87616106 -145.22633087 37.94442432 -151 38 C-151.33 39.65 -151.66 41.3 -152 43 C-147.11175689 44.63775981 -142.22281163 46.27340157 -137.33325195 47.90722656 C-135.67583883 48.46135636 -134.0186068 49.01602816 -132.36157227 49.57128906 C-127.63429273 51.15514927 -122.90379389 52.7285631 -118.1675415 54.28540039 C-116.7682741 54.74671379 -115.37003712 55.21117007 -113.9730835 55.67944336 C-112.17675821 56.28061133 -110.37562536 56.86735909 -108.57421875 57.453125 C-107.58381592 57.77958008 -106.59341309 58.10603516 -105.57299805 58.44238281 C-101.17665258 59.39515376 -98.56766646 57.91724886 -94.83203125 55.6640625 C-94.03055664 55.18283936 -93.22908203 54.70161621 -92.40332031 54.20581055 C-91.54834961 53.68414307 -90.69337891 53.16247559 -89.8125 52.625 C-88.47010254 51.81252808 -88.47010254 51.81252808 -87.10058594 50.98364258 C-80.90190769 47.21199204 -74.78583306 43.32692805 -68.71362305 39.35571289 C-61.54996273 34.677928 -54.29008895 30.15792094 -47.02905273 25.63330078 C-41.41221197 22.13276313 -35.80282793 18.62147324 -30.21118164 15.08081055 C-27.88537372 13.6086274 -25.55612243 12.14201733 -23.2265625 10.67578125 C-20.51725659 8.96822006 -17.82616864 7.23707709 -15.1484375 5.48046875 C-13.99481036 4.73695016 -12.84116582 3.99345856 -11.6875 3.25 C-10.72199219 2.61578125 -9.75648438 1.9815625 -8.76171875 1.328125 C-5.56131988 -0.21096357 -3.51016209 -0.39765473 0 0 Z " fill="#5A49A8" transform="translate(390,275)"/>
<path d="M0 0 C1.05138877 0.00054477 2.10277754 0.00108953 3.18602657 0.00165081 C4.99281887 -0.00464092 4.99281887 -0.00464092 6.83611202 -0.01105976 C8.17792496 -0.00557592 9.51973709 0.00010707 10.86154842 0.00596905 C12.26907089 0.00489658 13.67659292 0.00295843 15.08411312 0.00021648 C18.91249554 -0.00464025 22.74076181 0.00303375 26.56913018 0.01316953 C30.56853341 0.02193512 34.56793284 0.02019288 38.56734371 0.01980877 C45.2834331 0.020746 51.99947736 0.02943839 58.71555233 0.04307842 C66.49087934 0.05881095 74.26615694 0.06407634 82.04149872 0.06334287 C89.50913498 0.06273345 96.97675507 0.06783056 104.44438648 0.07613468 C107.62819132 0.07967384 110.81199044 0.08149883 113.99579716 0.08202839 C117.74104541 0.08302971 121.48625185 0.08910897 125.23148632 0.09919453 C126.60980187 0.10212609 127.98812223 0.10334358 129.36644077 0.10276699 C131.24022648 0.10227958 133.11401042 0.10852599 134.98778439 0.1151762 C136.03879613 0.11685205 137.08980787 0.11852789 138.17266846 0.12025452 C140.52341366 0.24888897 140.52341366 0.24888897 141.52341366 1.24888897 C141.62393241 4.04341168 141.65957259 6.81325252 141.65280819 9.60826397 C141.65543667 10.9228056 141.65543667 10.9228056 141.65811825 12.26390362 C141.66253798 15.17558524 141.65959835 18.08720667 141.65622616 20.99888897 C141.65689916 23.01288648 141.65786916 25.02688392 141.65912533 27.04088116 C141.66060247 31.26777702 141.65844724 35.4946518 141.65378475 39.72154522 C141.64808746 45.15269429 141.65136638 50.58379396 141.65735722 56.01494122 C141.6609624 60.17548784 141.65982444 64.33602266 141.65722942 68.49656963 C141.65656004 70.49974352 141.65738898 72.50291846 141.65970898 74.50609112 C141.6622348 77.30059449 141.6583959 80.09501668 141.65280819 82.88951397 C141.65483242 83.72591412 141.65685665 84.56231426 141.65894222 85.42405987 C141.63767608 91.13462655 141.63767608 91.13462655 140.52341366 92.24888897 C138.6804229 92.34973874 136.83353002 92.37965869 134.98778439 92.38260174 C133.78607601 92.38686672 132.58436764 92.39113171 131.34624386 92.39552593 C130.00238701 92.39517637 128.6585302 92.39471481 127.31467342 92.39415264 C125.90892096 92.39714256 124.50316933 92.4005447 123.09741879 92.40433025 C119.26894905 92.41319148 115.44050164 92.41550925 111.61202264 92.41614604 C108.42099708 92.41709339 105.22997678 92.42076967 102.03895324 92.42431813 C94.5131815 92.43247076 86.98742173 92.43490163 79.46164608 92.4341917 C71.68691045 92.43359069 63.91224417 92.44414528 56.13752609 92.45993537 C49.47255836 92.47299146 42.80761334 92.47837642 36.1426329 92.47773629 C32.15750567 92.47748074 28.17244002 92.48036358 24.18732548 92.49091434 C20.44042544 92.50056296 16.69364624 92.50069693 12.94674206 92.49339771 C11.56884301 92.49234782 10.19093657 92.4947386 8.81305027 92.50075817 C6.93739073 92.50842378 5.0616904 92.50265869 3.18602657 92.49612713 C2.1346378 92.4966719 1.08324903 92.49721666 0 92.49777794 C-2.47658634 92.24888897 -2.47658634 92.24888897 -4.47658634 90.24888897 C-4.67521977 87.45837806 -4.74928485 84.76709849 -4.7353754 81.97545147 C-4.73888004 81.12005779 -4.74238468 80.26466412 -4.74599552 79.38334942 C-4.75482111 76.54678082 -4.74896079 73.71046024 -4.74221134 70.87388897 C-4.74355775 68.90855645 -4.74549809 66.94322425 -4.74800968 64.97789288 C-4.75096207 60.85530208 -4.74665963 56.73279784 -4.73732853 52.61021709 C-4.72593394 47.31702567 -4.7324928 42.02403705 -4.74447346 36.73085308 C-4.75168897 32.67148075 -4.74940555 28.61215677 -4.74421787 24.55278301 C-4.74288052 22.60067502 -4.74453207 20.64856269 -4.74917698 18.69645977 C-4.75423714 15.97162982 -4.74653922 13.24713161 -4.7353754 10.52232647 C-4.73942387 9.70979412 -4.74347233 8.89726177 -4.74764347 8.06010723 C-4.68983195 0.47131304 -4.68983195 0.47131304 0 0 Z " fill="#A744AC" transform="translate(229.4765863418579,106.75111103057861)"/>
<path d="M0 0 C6.53909374 2.25029541 10.2284368 5.891507 14 11.5625 C14.47767822 12.27196777 14.95535645 12.98143555 15.44750977 13.71240234 C18.57770168 18.64858156 20.16741686 22.61456215 19.77734375 28.5703125 C17.60589009 35.35746918 12.88149166 39.0205208 7.375 43.0625 C6.62645752 43.62340332 5.87791504 44.18430664 5.10668945 44.76220703 C-0.89599869 49.24063111 -6.97146212 53.62048083 -13.05737305 57.98486328 C-18.73866153 62.06457992 -24.34989112 66.23055658 -29.9375 70.4375 C-37.23171636 75.92929268 -44.54507486 81.39239465 -51.91455078 86.78295898 C-55.95178814 89.73814965 -59.95786518 92.72442947 -63.921875 95.77734375 C-80.16236149 108.1992913 -92.20132094 113.3147588 -112.8203125 112.71875 C-144.43013576 112.06334025 -171.78235341 111.8783019 -199.42382812 129.45532227 C-202 131 -202 131 -204 131 C-203.88140625 131.58007812 -203.7628125 132.16015625 -203.640625 132.7578125 C-203.51171875 133.53898438 -203.3828125 134.32015625 -203.25 135.125 C-203.11078125 135.89070312 -202.9715625 136.65640625 -202.828125 137.4453125 C-203.11998298 141.78338346 -205.47721777 144.59073426 -208.61132812 147.49121094 C-210.4146294 148.98335825 -212.25398607 150.40634623 -214.125 151.8125 C-214.75792969 152.30169922 -215.39085937 152.79089844 -216.04296875 153.29492188 C-221.07451802 157.15671606 -223.54561698 158.6454383 -230 158 C-235.21384119 154.71301317 -238.69108046 149.87115318 -242.51171875 145.09375 C-245.12199677 141.84831798 -247.79891752 138.66967118 -250.5 135.5 C-254.62175471 130.6510444 -258.66992875 125.74837325 -262.6875 120.8125 C-265.26146647 117.68200024 -267.87582164 114.58838974 -270.5 111.5 C-287.28955038 91.72648996 -287.28955038 91.72648996 -287.4375 86.6875 C-287.47746094 85.94886719 -287.51742187 85.21023438 -287.55859375 84.44921875 C-286.14081474 78.23280308 -279.84447929 73.9135218 -275.0625 70.125 C-274.46759766 69.62742187 -273.87269531 69.12984375 -273.25976562 68.6171875 C-270.29906335 66.26156864 -268.57316501 65.07862914 -264.75390625 64.5546875 C-261.13714898 65.13952485 -258.97939744 66.92737569 -256 69 C-251.99891065 69.42244803 -251.99891065 69.42244803 -249.60110474 67.03501892 C-248.71067474 66.11459305 -247.82024475 65.19416718 -246.90283203 64.24584961 C-246.40779678 63.74015442 -245.91276154 63.23445923 -245.40272522 62.71343994 C-244.32730809 61.61274532 -243.25644301 60.50758913 -242.18960953 59.39857292 C-240.49051938 57.6343881 -238.77789175 55.88445168 -237.0607605 54.13783264 C-232.18034421 49.16896558 -227.32351276 44.17740618 -222.48046875 39.17211914 C-219.51507747 36.10937006 -216.53197366 33.06475937 -213.53817368 30.02978706 C-212.40959021 28.87848416 -211.28772878 27.72054573 -210.17334366 26.55549431 C-200.86331572 16.82526291 -190.56581406 8.42050536 -176.47119141 7.85955811 C-175.09801648 7.84760444 -173.72478772 7.84104916 -172.3515625 7.83886719 C-171.22134674 7.83141983 -171.22134674 7.83141983 -170.06829834 7.82382202 C-167.58718947 7.80927108 -165.10614444 7.80241181 -162.625 7.796875 C-160.89534504 7.79111967 -159.1656901 7.78536198 -157.43603516 7.77960205 C-153.81477563 7.76911355 -150.19353819 7.76325618 -146.57226562 7.75976562 C-141.93518487 7.75427194 -137.2983964 7.73021631 -132.66140747 7.70179367 C-129.090893 7.6831643 -125.5204491 7.67796163 -121.94989014 7.67642975 C-120.24027908 7.6734056 -118.53066919 7.66538508 -116.82110596 7.65224457 C-114.42998969 7.6351704 -112.03959016 7.63706689 -109.6484375 7.64355469 C-108.9449115 7.6343399 -108.2413855 7.62512512 -107.51654053 7.6156311 C-101.77466757 7.66438069 -98.6992069 9.28459457 -94.72070312 13.30102539 C-92.66739076 16.5217076 -92.48480126 18.38833082 -92.46875 22.18359375 C-92.46101563 23.94606445 -92.46101563 23.94606445 -92.453125 25.74414062 C-92.46859375 26.96294922 -92.4840625 28.18175781 -92.5 29.4375 C-92.47679687 31.25991211 -92.47679687 31.25991211 -92.453125 33.11914062 C-92.50306087 44.51076111 -92.50306087 44.51076111 -97 49 C-100.50159289 50.69143174 -103.43185187 51.27831059 -107.30078125 51.4140625 C-108.76547852 51.47207031 -108.76547852 51.47207031 -110.25976562 51.53125 C-111.26716797 51.5621875 -112.27457031 51.593125 -113.3125 51.625 C-114.33923828 51.66367187 -115.36597656 51.70234375 -116.42382812 51.7421875 C-118.94904265 51.83614897 -121.47425592 51.9218154 -124 52 C-120.94131492 53.01193629 -117.87750729 54.0073937 -114.8125 55 C-113.51602539 55.42925781 -113.51602539 55.42925781 -112.19335938 55.8671875 C-111.35224609 56.13789063 -110.51113281 56.40859375 -109.64453125 56.6875 C-108.87471924 56.93886719 -108.10490723 57.19023437 -107.31176758 57.44921875 C-102.90685712 58.49869367 -100.63735935 58.35606254 -96.63671875 56.12109375 C-95.31331216 55.23695203 -93.99741072 54.3415163 -92.6875 53.4375 C-91.16939216 52.4223473 -89.6497714 51.40945462 -88.12890625 50.3984375 C-87.30793457 49.85026367 -86.48696289 49.30208984 -85.64111328 48.73730469 C-80.85791119 45.5909499 -75.98772601 42.58387582 -71.125 39.5625 C-69.05446566 38.27249141 -66.98415157 36.98212924 -64.9140625 35.69140625 C-63.91149414 35.06637207 -62.90892578 34.44133789 -61.87597656 33.79736328 C-57.74112129 31.21325424 -53.6195375 28.60843497 -49.5 26 C-39.22433408 19.496273 -28.91742445 13.04191223 -18.58837891 6.62329102 C-16.93537321 5.5866154 -15.29079767 4.53629078 -13.65771484 3.46850586 C-12.95984863 3.01483643 -12.26198242 2.56116699 -11.54296875 2.09375 C-10.94895264 1.69994141 -10.35493652 1.30613281 -9.74291992 0.90039062 C-6.4904536 -0.77983011 -3.52964853 -0.73361322 0 0 Z M-15.6875 12.75 C-16.61522217 13.34055176 -17.54294434 13.93110352 -18.4987793 14.53955078 C-20.41644745 15.76141339 -22.33058724 16.98883076 -24.24121094 18.22167969 C-27.49371324 20.31824843 -30.76529424 22.38314917 -34.0402832 24.44433594 C-36.35884737 25.90418186 -38.67370588 27.3697771 -40.98828125 28.8359375 C-46.64479896 32.41313701 -52.32237955 35.95642506 -58 39.5 C-64.63675928 43.64322194 -71.27066391 47.79062681 -77.88598633 51.96801758 C-79.47698634 52.97249741 -81.06923042 53.97501007 -82.6628418 54.9753418 C-85.94900416 57.0427381 -89.21277717 59.12359545 -92.40625 61.33203125 C-93.3653125 61.98558594 -94.324375 62.63914062 -95.3125 63.3125 C-96.48232422 64.14201172 -96.48232422 64.14201172 -97.67578125 64.98828125 C-102.52076472 67.09727406 -108.05470797 64.45002985 -112.83984375 62.890625 C-113.80586266 62.5775943 -113.80586266 62.5775943 -114.79139709 62.25823975 C-116.84141893 61.59280949 -118.88944667 60.92146113 -120.9375 60.25 C-122.27656963 59.81472534 -123.61576155 59.37982672 -124.95507812 58.9453125 C-133.98560887 56.01025611 -142.99543086 53.01366186 -152 50 C-151.67 48.35 -151.34 46.7 -151 45 C-150.39056549 44.99413376 -149.78113098 44.98826752 -149.15322876 44.98222351 C-142.82677684 44.91843349 -136.50084046 44.83405216 -130.17480469 44.73754883 C-127.81191797 44.7042344 -125.44895042 44.67622303 -123.0859375 44.65356445 C-119.69496107 44.6201383 -116.30472984 44.56782853 -112.9140625 44.51171875 C-111.32182358 44.50213387 -111.32182358 44.50213387 -109.69741821 44.49235535 C-108.22611954 44.46266411 -108.22611954 44.46266411 -106.72509766 44.43237305 C-105.85905914 44.42126999 -104.99302063 44.41016693 -104.10073853 44.39872742 C-103.40749481 44.26714737 -102.7142511 44.13556732 -102 44 C-98.95156379 39.42734569 -99.67112407 34.87785396 -99.6875 29.5 C-99.67138672 28.44167969 -99.65527344 27.38335937 -99.63867188 26.29296875 C-99.63770508 24.77123047 -99.63770508 24.77123047 -99.63671875 23.21875 C-99.63373779 22.28998047 -99.63075684 21.36121094 -99.62768555 20.40429688 C-99.82736488 18.0192552 -99.82736488 18.0192552 -101.06439209 16.37498474 C-103.97310086 14.3087449 -106.90290378 14.57392047 -110.34204102 14.59594727 C-111.08719467 14.58908401 -111.83234833 14.58222076 -112.6000824 14.57514954 C-115.06821676 14.55682361 -117.53571828 14.56073022 -120.00390625 14.56640625 C-121.72444363 14.56184414 -123.44497918 14.55653848 -125.16551208 14.55052185 C-128.77781555 14.54157711 -132.38989818 14.54402568 -136.00219727 14.55395508 C-140.60985991 14.5653915 -145.2167501 14.54532287 -149.82431126 14.51603794 C-153.38220499 14.49759196 -156.93991699 14.49798596 -160.4978466 14.50367546 C-162.19494643 14.50382795 -163.89205915 14.49784413 -165.58911324 14.48538399 C-179.25732207 14.39924037 -188.21816361 15.7056242 -198.41201782 25.4414978 C-199.26605194 26.28580353 -200.12008606 27.13010925 -201 28 C-201.89923187 28.86613922 -202.79846375 29.73227844 -203.72494507 30.62466431 C-206.67335334 33.47669092 -209.5970484 36.35187747 -212.51171875 39.23828125 C-213.03335917 39.75459799 -213.55499958 40.27091473 -214.09244728 40.80287743 C-216.83712632 43.52114244 -219.57833697 46.24285518 -222.31713867 48.96704102 C-224.57690549 51.21333385 -226.84378599 53.45207452 -229.11694336 55.68481445 C-231.8821971 58.40094857 -234.63515773 61.12897131 -237.37952614 63.8662014 C-238.42274492 64.90269924 -239.47022045 65.93493091 -240.52197838 66.96276283 C-241.98155451 68.39092596 -243.42422545 69.83630533 -244.8659668 71.2824707 C-245.6907402 72.09915726 -246.51551361 72.91584381 -247.36528015 73.75727844 C-249.25130304 75.83483512 -249.25130304 75.83483512 -248.83113098 78.1913147 C-247.90084695 80.21577425 -246.86290755 81.62642776 -245.375 83.28515625 C-244.83794434 83.89246582 -244.30088867 84.49977539 -243.74755859 85.12548828 C-243.17086426 85.76470215 -242.59416992 86.40391602 -242 87.0625 C-240.80349945 88.41431396 -239.60819161 89.76718451 -238.4140625 91.12109375 C-237.53476074 92.11471924 -237.53476074 92.11471924 -236.63769531 93.12841797 C-233.75277358 96.4253485 -231.01264275 99.83677003 -228.2578125 103.2421875 C-225.63195544 106.44954924 -222.94227959 109.59844654 -220.25 112.75 C-216.60419384 117.02566723 -213.14338317 121.3391215 -210 126 C-204.32115328 124.45233147 -199.86756847 122.39648124 -194.890625 119.2421875 C-171.26006253 105.01262655 -147.54916767 105.42295322 -120.81933594 105.89404297 C-120.07505687 105.90554571 -119.3307778 105.91704845 -118.56394482 105.92889977 C-115.03556211 105.98488687 -111.51161713 106.06308538 -107.98530579 106.19723511 C-97.23884168 106.46211229 -87.80791485 104.67821632 -79 98.1875 C-78.48131348 97.81133545 -77.96262695 97.4351709 -77.42822266 97.04760742 C-75.6051254 95.71598789 -73.80251202 94.35934549 -72 93 C-70.4664247 91.85639677 -68.93255156 90.71319288 -67.3984375 89.5703125 C-63.98674157 87.02188974 -60.58308883 84.46310858 -57.18359375 81.8984375 C-52.29201391 78.21216194 -47.37180176 74.56632532 -42.4375 70.9375 C-41.65810059 70.36427002 -40.87870117 69.79104004 -40.07568359 69.20043945 C-38.50358483 68.04469487 -36.93131955 66.88917675 -35.35888672 65.73388672 C-30.61926984 62.25005738 -25.8848305 58.75918741 -21.15112305 55.26733398 C-17.0495492 52.24272633 -12.9429167 49.22535699 -8.828125 46.21875 C-7.97798828 45.59613281 -7.12785156 44.97351563 -6.25195312 44.33203125 C-4.63774829 43.1500452 -3.02197506 41.97019667 -1.40429688 40.79296875 C0.74680347 39.21587156 2.87522588 37.61231668 5 36 C5.68126953 35.50757813 6.36253906 35.01515625 7.06445312 34.5078125 C10.30705084 32.01401405 11.80346411 30.52369256 13.26953125 26.6171875 C12.89500109 21.59088418 10.77915548 18.97340756 7.6875 15.125 C7.17509766 14.44953125 6.66269531 13.7740625 6.13476562 13.078125 C2.73118156 8.46164146 2.73118156 8.46164146 -2.51953125 6.578125 C-7.74552473 7.21157876 -11.33673588 9.90697384 -15.6875 12.75 Z " fill="#F9F8FC" transform="translate(390,268)"/>
<path d="M0 0 C0.70463558 -0.00297112 1.40927116 -0.00594224 2.13525933 -0.0090034 C4.50816876 -0.01770954 6.88102786 -0.01920026 9.25395203 -0.02069092 C10.95054737 -0.02531776 12.64714166 -0.03034223 14.34373474 -0.03573608 C18.96157295 -0.04887545 23.57939661 -0.05530809 28.1972506 -0.05974674 C31.08081462 -0.06267513 33.96437463 -0.0667795 36.84793663 -0.07125092 C45.86558461 -0.08493019 54.88322347 -0.09459461 63.90088111 -0.09845281 C74.31841161 -0.1029341 84.73581093 -0.12048349 95.15330154 -0.1494534 C103.20006528 -0.17105548 111.24679209 -0.18115631 119.29358453 -0.18249393 C124.10209864 -0.18354306 128.91048952 -0.18947374 133.71897316 -0.20731354 C138.2423765 -0.22376865 142.76556364 -0.22596222 147.28898621 -0.21717453 C148.94944016 -0.21640277 150.60990562 -0.22076519 152.27033043 -0.23063278 C154.53708693 -0.2433138 156.80307329 -0.23749697 159.06982422 -0.22705078 C160.33837911 -0.22851734 161.60693399 -0.2299839 162.91392994 -0.2314949 C167.54121892 0.28823364 170.06225572 2.12699812 173.50553894 5.12715149 C176.14317942 9.7484749 175.78269457 14.11947697 175.7429657 19.35308838 C175.74997498 20.48534851 175.75698425 21.61760864 175.76420593 22.78417969 C175.78181038 26.52688118 175.77015284 30.26882645 175.75663757 34.01153564 C175.75933195 36.61318609 175.76321391 39.21483555 175.76823425 41.81648254 C175.77413283 47.26970939 175.76593708 52.72265226 175.74687195 58.17584229 C175.72511474 64.47156088 175.73214762 70.76676106 175.75417757 77.06246704 C175.77455097 83.12857309 175.77235066 89.19445018 175.76065063 95.26057625 C175.75798269 97.8373732 175.76125545 100.41418339 175.77056885 102.99096489 C175.78073192 106.59379943 175.76523419 110.1956403 175.7429657 113.79840088 C175.75106262 114.86301041 175.75915955 115.92761993 175.76750183 117.02449036 C175.70062586 122.86747939 175.360072 126.64586239 171.22538757 131.14044189 C167.35187564 134.22198758 164.38931419 134.50859967 159.50737 134.48101807 C158.85315063 134.48145615 158.19893127 134.48189423 157.52488708 134.48234558 C155.37656627 134.48026645 153.22903969 134.45697851 151.08085632 134.43341064 C149.58585028 134.42781153 148.09083872 134.42354292 146.5958252 134.42054749 C142.67153072 134.40912341 138.74757226 134.37967762 134.82341003 134.34643555 C130.81487065 134.31568183 126.80627669 134.30203085 122.7976532 134.28692627 C114.94006035 134.25480515 107.08280455 134.20205754 99.22538757 134.14044189 C99.22538757 141.40044189 99.22538757 148.66044189 99.22538757 156.14044189 C102.52538757 156.14044189 105.82538757 156.14044189 109.22538757 156.14044189 C112.45289544 160.44378571 112.65700109 161.50742465 112.66288757 166.64044189 C112.69189148 168.32653564 112.69189148 168.32653564 112.72148132 170.04669189 C112.11362007 173.83744867 111.19670195 174.78206475 108.22538757 177.14044189 C105.63858032 177.64164734 105.63858032 177.64164734 102.67826843 177.64215088 C101.56709152 177.65153183 100.45591461 177.66091278 99.31106567 177.670578 C97.51875267 177.65372704 97.51875267 177.65372704 95.69023132 177.63653564 C94.46002762 177.63799088 93.22982391 177.63944611 91.96234131 177.64094543 C89.36241792 177.6392857 86.76248478 177.62771626 84.16264343 177.60699463 C81.49346392 177.5876067 78.82673756 177.57728261 76.15776062 177.58648682 C72.31418203 177.59905295 68.47128512 177.59042563 64.62773132 177.57403564 C63.43083176 177.57697128 62.23393219 177.57990692 61.00076294 177.58293152 C59.89273819 177.57024734 58.78471344 177.55756317 57.64311218 177.54449463 C56.66700485 177.53909164 55.69089752 177.53368866 54.68521118 177.52812195 C52.22538757 177.14044189 52.22538757 177.14044189 50.41387939 175.84565735 C48.37689548 172.92304872 48.75430083 169.57239649 48.78788757 166.14044189 C48.75791687 165.05376221 48.75791687 165.05376221 48.7273407 163.94512939 C48.73023929 160.80305072 48.81399319 158.67914759 50.75273132 156.14044189 C53.22538757 155.14044189 53.22538757 155.14044189 61.22538757 155.14044189 C61.22538757 148.21044189 61.22538757 141.28044189 61.22538757 134.14044189 C59.1968866 134.16662598 57.16838562 134.19281006 55.07841492 134.2197876 C48.36506461 134.30275547 41.65169124 134.3579127 34.93796349 134.39950275 C30.86861861 134.42556115 26.79980043 134.46088894 22.73075867 134.51763916 C18.80146254 134.5720954 14.87267195 134.60189069 10.9430275 134.61482811 C9.44630096 134.6240438 7.9496011 134.64204053 6.45309067 134.66909218 C-6.74799002 134.89816092 -6.74799002 134.89816092 -10.61592102 131.85992432 C-13.73839911 127.92627996 -15.02021154 125.30610881 -15.05549622 120.26475525 C-15.0669165 119.28491669 -15.07833679 118.30507812 -15.09010315 117.29554749 C-15.09233887 116.2268895 -15.09457458 115.15823151 -15.09687805 114.05718994 C-15.10680786 112.92668213 -15.11673767 111.79617432 -15.12696838 110.63140869 C-15.1561989 106.88830132 -15.169813 103.14536344 -15.18086243 99.40216064 C-15.192366 96.80147802 -15.20388146 94.20079544 -15.21540833 91.60011292 C-15.23373851 86.84234977 -15.24634079 82.0846544 -15.25240183 77.32686204 C-15.2613598 70.33443926 -15.29644485 63.3427991 -15.35440302 56.35061425 C-15.40292676 50.28507146 -15.41829425 44.21985065 -15.42175293 38.15412331 C-15.42780565 35.57811026 -15.44386182 33.00210051 -15.47012329 30.42621422 C-15.50425798 26.82083314 -15.50048274 23.21735481 -15.48750305 19.61187744 C-15.50593262 18.54929214 -15.52436218 17.48670685 -15.54335022 16.391922 C-15.4739197 10.23137623 -14.63871871 6.80836571 -10.25736237 2.36605549 C-6.95938612 -0.3599905 -4.19154689 0.00983762 0 0 Z M-6.67545509 8.37247276 C-8.09484086 10.65552191 -8.15192218 12.12403393 -8.15556335 14.80889893 C-8.16402283 15.767901 -8.1724823 16.72690308 -8.18119812 17.71496582 C-8.17512543 18.76545105 -8.16905273 19.81593628 -8.16279602 20.89825439 C-8.16805298 22.00578064 -8.17330994 23.11330688 -8.1787262 24.25439453 C-8.19195817 27.92488601 -8.18317649 31.5949458 -8.17304993 35.26544189 C-8.17506973 37.80987634 -8.17798039 40.35431022 -8.18174744 42.89874268 C-8.18617514 48.23522987 -8.18001032 53.57156154 -8.16572571 58.90802002 C-8.14939882 65.07871289 -8.15468725 71.24910841 -8.17120492 77.41979408 C-8.18645546 83.35451359 -8.18484614 89.28914064 -8.17605972 95.22387695 C-8.17405435 97.75012249 -8.17652873 100.27637558 -8.18349838 102.8026123 C-8.19109263 106.329491 -8.17953642 109.85579374 -8.16279602 113.38262939 C-8.16886871 114.43311462 -8.17494141 115.48359985 -8.18119812 116.56591797 C-8.17273865 117.52492004 -8.16427917 118.48392212 -8.15556335 119.47198486 C-8.15443228 120.30599823 -8.1533012 121.1400116 -8.15213585 121.9992981 C-7.90568726 124.17439973 -7.90568726 124.17439973 -6.67545509 125.90841103 C-3.79599633 127.77473176 -1.38939889 127.51830047 2.01982117 127.52139282 C2.71447165 127.52607279 3.40912212 127.53075277 4.12482262 127.53557456 C6.45801629 127.54756338 8.7906268 127.53805256 11.12382507 127.52862549 C12.79425907 127.53268948 14.46469038 127.53803039 16.13511658 127.54455566 C20.67638463 127.55825566 25.21744868 127.55291959 29.7587204 127.54341841 C34.50591593 127.53583568 39.25309372 127.54286355 44.00028992 127.5475769 C51.97314091 127.55303851 59.9459086 127.54583224 67.91874695 127.53155518 C77.14317437 127.51522788 86.36740289 127.52051611 95.59182549 127.53703439 C103.50441125 127.55063774 111.41693704 127.55257457 119.32953072 127.54471838 C124.05858242 127.54003552 128.78754057 127.53943381 133.5165863 127.54932785 C137.96205226 127.55797851 142.40726117 127.55201054 146.85269928 127.53464508 C148.48657046 127.53067004 150.12046319 127.5318316 151.75432587 127.53843307 C153.98016302 127.54659884 156.2051701 127.53638829 158.43095398 127.52139282 C160.30141891 127.51969621 160.30141891 127.51969621 162.20967102 127.51796532 C165.17492966 127.36905308 165.17492966 127.36905308 167.12623024 125.90841103 C168.545616 123.62536188 168.60269733 122.15684985 168.6063385 119.47198486 C168.61902771 118.03348175 168.61902771 118.03348175 168.63197327 116.56591797 C168.62590057 115.51543274 168.61982788 114.46494751 168.61357117 113.38262939 C168.61882812 112.27510315 168.62408508 111.1675769 168.62950134 110.02648926 C168.64273331 106.35599778 168.63395164 102.68593799 168.62382507 99.01544189 C168.62584488 96.47100745 168.62875554 93.92657357 168.63252258 91.38214111 C168.63695029 86.04565392 168.63078547 80.70932225 168.61650085 75.37286377 C168.60017397 69.20217089 168.6054624 63.03177537 168.62198007 56.86108971 C168.6372306 50.9263702 168.63562128 44.99174315 168.62683487 39.05700684 C168.6248295 36.5307613 168.62730387 34.0045082 168.63427353 31.47827148 C168.64186778 27.95139279 168.63031156 24.42509005 168.61357117 20.89825439 C168.62268021 19.32252655 168.62268021 19.32252655 168.63197327 17.71496582 C168.62351379 16.75596375 168.61505432 15.79696167 168.6063385 14.80889893 C168.60520742 13.97488556 168.60407635 13.14087219 168.602911 12.28158569 C168.3564624 10.10648406 168.3564624 10.10648406 167.12623024 8.37247276 C164.24677147 6.50615203 161.84017404 6.76258332 158.43095398 6.75949097 C157.7363035 6.75481099 157.04165302 6.75013102 156.32595253 6.74530923 C153.99275886 6.73332041 151.66014835 6.74283123 149.32695007 6.7522583 C147.65651608 6.74819431 145.98608477 6.7428534 144.31565857 6.73632812 C139.77439052 6.72262813 135.23332646 6.7279642 130.69205475 6.73746538 C125.94485922 6.74504811 121.19768143 6.73802024 116.45048523 6.73330688 C108.47763424 6.72784528 100.50486655 6.73505155 92.5320282 6.74932861 C83.30760078 6.76565591 74.08337226 6.76036768 64.85894966 6.7438494 C56.9463639 6.73024605 49.0338381 6.72830922 41.12124443 6.7361654 C36.39219272 6.74084827 31.66323458 6.74144998 26.93418884 6.73155594 C22.48872289 6.72290527 18.04351398 6.72887325 13.59807587 6.74623871 C11.96420469 6.75021375 10.33031196 6.74905218 8.69644928 6.74245071 C6.47061213 6.73428495 4.24560504 6.7444955 2.01982117 6.75949097 C0.77284454 6.76062204 -0.47413208 6.76175312 -1.75889587 6.76291847 C-4.72415452 6.91183071 -4.72415452 6.91183071 -6.67545509 8.37247276 Z " fill="#FBF8FB" transform="translate(217.7746124267578,85.85955810546875)"/>
<path d="M0 0 C1.43133321 -0.00322234 2.86266256 -0.00904415 4.29397583 -0.01725769 C8.16606436 -0.03174929 12.03710911 -0.00890807 15.90907145 0.02160144 C19.96662031 0.04802819 24.02413921 0.042669 28.08175659 0.04151917 C34.89257186 0.04432496 41.70298507 0.07032276 48.51367188 0.11132812 C56.38397706 0.15853854 64.25384258 0.17432091 72.12427914 0.17212147 C80.512047 0.17009416 88.89964577 0.19091855 97.28736258 0.21846128 C99.70125695 0.22484986 102.11512398 0.22698405 104.52902603 0.22817802 C108.32292347 0.23119488 112.11645285 0.24953715 115.91022873 0.27967644 C117.30136104 0.28842681 118.69253571 0.29213251 120.08369446 0.29039383 C121.98431321 0.28891748 123.88491521 0.30777447 125.78543091 0.32762146 C126.84838442 0.33264899 127.91133793 0.33767653 129.00650215 0.34285641 C132.33756943 0.78984861 134.19392033 1.73705236 136.88232422 3.72875977 C139.50232054 7.65875424 139.20022667 11.03887429 139.22045898 15.60302734 C139.23199509 16.5106633 139.24353119 17.41829926 139.25541687 18.35343933 C139.28976445 21.36007391 139.30823352 24.36650318 139.32373047 27.37329102 C139.33408483 28.91352212 139.33408483 28.91352212 139.34464836 30.484869 C139.38049887 35.91878798 139.40403077 41.35260288 139.41772461 46.78662109 C139.43427838 52.39936597 139.49270807 58.01085223 139.56086826 63.62317371 C139.60564514 67.93921339 139.61921846 72.25495118 139.62434196 76.57120323 C139.63223903 78.64010075 139.65189502 80.70898828 139.68356514 82.77765846 C139.72499427 85.67487074 139.72218086 88.5689019 139.70874023 91.46630859 C139.7417775 92.74533554 139.7417775 92.74533554 139.77548218 94.05020142 C139.708613 98.29783363 139.17541666 101.10431125 136.21203613 104.26013184 C130.75757243 108.22808164 124.23893951 107.55860558 117.78051758 107.48925781 C116.35080128 107.49575803 114.92109471 107.50482406 113.4914093 107.51625061 C109.62343453 107.53925965 105.75645099 107.52465706 101.88850856 107.50178123 C97.83407041 107.48281613 93.77969671 107.49403108 89.72523499 107.50068665 C82.9186332 107.5070198 76.11242698 107.48879467 69.3059082 107.45605469 C61.44344186 107.41854757 53.5817242 107.42034748 45.71921819 107.44309586 C38.14524854 107.46406268 30.57155488 107.45676185 22.99759102 107.43677711 C19.77876436 107.42880323 16.56017191 107.43076785 13.34135246 107.44080162 C9.54974148 107.45137211 5.75900064 107.43717209 1.96752739 107.40405846 C0.5784288 107.39586841 -0.81074976 107.3961152 -2.19984055 107.40553665 C-13.99280676 107.47672247 -13.99280676 107.47672247 -17.92845154 104.31233215 C-21.59400652 99.98649543 -21.29483251 96.52819935 -21.34228516 91.05981445 C-21.35367523 90.16207809 -21.36506531 89.26434174 -21.37680054 88.33940125 C-21.48739268 78.95122899 -21.53487033 69.56227038 -21.57763672 60.17358398 C-21.59992586 55.7171384 -21.64171422 51.2615284 -21.70068359 46.80541992 C-21.77171064 41.42785673 -21.80845966 36.05108099 -21.820755 30.67307281 C-21.83116538 28.62369459 -21.85361271 26.57434064 -21.88835144 24.52523041 C-21.93450822 21.65431267 -21.93656412 18.78648916 -21.92822266 15.9152832 C-21.95181854 15.07037827 -21.97541443 14.22547333 -21.99972534 13.35496521 C-21.94029149 9.12410259 -21.39881663 6.34344902 -18.44937134 3.20014954 C-12.98966929 -0.77647382 -6.46446984 -0.08450868 0 0 Z M-14.11767578 9.72875977 C-14.31630921 12.51927068 -14.39037429 15.21055025 -14.37646484 18.00219727 C-14.37996948 18.85759094 -14.38347412 19.71298462 -14.38708496 20.59429932 C-14.39591055 23.43086791 -14.39005023 26.26718849 -14.38330078 29.10375977 C-14.38464719 31.06909229 -14.38658753 33.03442448 -14.38909912 34.99975586 C-14.39205151 39.12234665 -14.38774906 43.24485089 -14.37841797 47.36743164 C-14.36702338 52.66062306 -14.37358224 57.95361168 -14.3855629 63.24679565 C-14.39277841 67.30616798 -14.39049499 71.36549197 -14.38530731 75.42486572 C-14.38396996 77.37697371 -14.38562151 79.32908604 -14.39026642 81.28118896 C-14.39532658 84.00601891 -14.38762866 86.73051712 -14.37646484 89.45532227 C-14.38051331 90.26785461 -14.38456177 91.08038696 -14.38873291 91.9175415 C-14.52765866 96.29064802 -14.52765866 96.29064802 -12.11767578 99.72875977 C-9.52758974 100.03096047 -9.52758974 100.03096047 -6.45506287 99.97599792 C-5.25053467 99.98019241 -4.04600647 99.9843869 -2.80497742 99.9887085 C-1.46316448 99.98322465 -0.12135235 99.97754166 1.22045898 99.97167969 C2.62798145 99.97275215 4.03550348 99.97469031 5.44302368 99.97743225 C9.2714061 99.98228898 13.09967237 99.97461498 16.92804074 99.96447921 C20.92744397 99.95571362 24.9268434 99.95745585 28.92625427 99.95783997 C35.64234366 99.95690274 42.35838793 99.94821035 49.07446289 99.93457031 C56.8497899 99.91883778 64.6250675 99.91357239 72.40040928 99.91430587 C79.86804554 99.91491528 87.33566563 99.90981817 94.80329704 99.90151405 C97.98710188 99.89797489 101.170901 99.8961499 104.35470772 99.89562035 C108.09995597 99.89461902 111.84516241 99.88853977 115.59039688 99.87845421 C116.96871243 99.87552264 118.34703279 99.87430516 119.72535133 99.87488174 C121.59913704 99.87536915 123.47292098 99.86912275 125.34669495 99.86247253 C126.92321256 99.85995877 126.92321256 99.85995877 128.53157902 99.85739422 C130.84022194 99.99333368 130.84022194 99.99333368 131.88232422 98.72875977 C131.98284297 95.93423706 132.01848315 93.16439622 132.01171875 90.36938477 C132.01347107 89.49302368 132.01522339 88.6166626 132.01702881 87.71374512 C132.02144854 84.80206349 132.01850891 81.89044206 132.01513672 78.97875977 C132.01580972 76.96476225 132.01677972 74.95076481 132.01803589 72.93676758 C132.01951303 68.70987171 132.0173578 64.48299694 132.01269531 60.25610352 C132.00699802 54.82495444 132.01027694 49.39385478 132.01626778 43.96270752 C132.01987296 39.80216089 132.018735 35.64162607 132.01613998 31.4810791 C132.0154706 29.47790521 132.01629954 27.47473027 132.01861954 25.47155762 C132.02114537 22.67705424 132.01730646 19.88263206 132.01171875 17.08813477 C132.0147551 15.83353455 132.0147551 15.83353455 132.01785278 14.55358887 C132.36114093 10.83818541 132.36114093 10.83818541 130.88232422 7.72875977 C129.03933346 7.62791 127.19244058 7.59799005 125.34669495 7.595047 C124.14498657 7.59078201 122.9432782 7.58651703 121.70515442 7.5821228 C120.36129757 7.58247237 119.01744076 7.58293392 117.67358398 7.58349609 C116.26783152 7.58050617 114.86207989 7.57710403 113.45632935 7.57331848 C109.62785961 7.56445726 105.7994122 7.56213948 101.9709332 7.5615027 C98.77990765 7.56055535 95.58888735 7.55687907 92.39786381 7.5533306 C84.87209206 7.54517797 77.34633229 7.5427471 69.82055664 7.54345703 C62.04582102 7.54405804 54.27115473 7.53350346 46.49643666 7.51771337 C39.83146892 7.50465727 33.1665239 7.49927232 26.50154346 7.49991244 C22.51641624 7.500168 18.53135058 7.49728516 14.54623604 7.48673439 C10.799336 7.47708578 7.0525568 7.4769518 3.30565262 7.48425102 C1.92775357 7.48530092 0.54984713 7.48291014 -0.82803917 7.47689056 C-2.70369871 7.46922495 -4.57939904 7.47499004 -6.45506287 7.48152161 C-7.50645164 7.48097684 -8.5578404 7.48043207 -9.64108944 7.4798708 C-12.29337901 7.48255829 -12.29337901 7.48255829 -14.11767578 9.72875977 Z " fill="#FAF5FA" transform="translate(239.11767578125,99.271240234375)"/>
<path d="M0 0 C2.40166675 0.88463003 3.33976611 1.80634505 4.97998047 3.75170898 C5.50736816 4.36868652 6.03475586 4.98566406 6.578125 5.62133789 C7.12968262 6.28568848 7.68124023 6.95003906 8.24951172 7.63452148 C9.11552002 8.65618408 9.11552002 8.65618408 9.99902344 9.69848633 C13.9934054 14.42659835 17.92379069 19.20794461 21.81982422 24.01733398 C24.36454942 27.12952404 26.95823242 30.19675268 29.56201172 33.25952148 C33.6934163 38.12222396 37.7701707 43.02344632 41.77685547 47.98999023 C43.44558855 50.01243768 45.13409954 51.98055484 46.87841797 53.93530273 C47.34626709 54.46889404 47.81411621 55.00248535 48.29614258 55.55224609 C49.61687673 57.05473478 50.95233841 58.54423981 52.28857422 60.03295898 C54.06201172 62.75952148 54.06201172 62.75952148 54.22607422 65.24389648 C52.51517654 68.94127268 49.91524098 71.06773667 46.81201172 73.63452148 C46.23837891 74.14499023 45.66474609 74.65545898 45.07373047 75.18139648 C42.61810349 77.25105931 40.77552642 78.6890509 37.53076172 79.00952148 C33.73728435 77.08877345 31.47551462 74.14219649 28.81201172 70.88452148 C28.23918457 70.20341309 27.66635742 69.52230469 27.07617188 68.82055664 C25.39151474 66.81078194 23.72415379 64.78793323 22.06201172 62.75952148 C21.24990234 61.77467773 20.43779297 60.78983398 19.60107422 59.77514648 C18.16382206 58.02138754 16.73148107 56.26359171 15.30419922 54.50170898 C12.75947402 51.38951893 10.16579102 48.32229029 7.56201172 45.25952148 C3.43126877 40.39759776 -0.64325485 35.49581133 -4.65283203 30.53295898 C-6.32475615 28.50378613 -8.01633667 26.51928599 -9.75439453 24.54858398 C-10.22224365 24.01048096 -10.69009277 23.47237793 -11.17211914 22.91796875 C-12.49443801 21.40067922 -13.82917292 19.89423671 -15.16455078 18.38842773 C-16.93798828 15.75952148 -16.93798828 15.75952148 -17.01220703 13.69702148 C-15.48827814 10.94840792 -13.49742453 9.24945827 -11.12548828 7.19702148 C-9.81644531 6.05040039 -9.81644531 6.05040039 -8.48095703 4.88061523 C-7.64177734 4.1806543 -6.80259766 3.48069336 -5.93798828 2.75952148 C-5.25349609 2.15237305 -4.56900391 1.54522461 -3.86376953 0.91967773 C-1.93798828 -0.24047852 -1.93798828 -0.24047852 0 0 Z " fill="#464BA7" transform="translate(125.93798828125,340.240478515625)"/>
<path d="M0 0 C7.92 0 15.84 0 24 0 C24 7.26 24 14.52 24 22 C16.08 22 8.16 22 0 22 C0 14.74 0 7.48 0 0 Z " fill="#894BAD" transform="translate(286,220)"/>
<path d="M0 0 C15.84 0 31.68 0 48 0 C48 2.31 48 4.62 48 7 C32.16 7 16.32 7 0 7 C0 4.69 0 2.38 0 0 Z " fill="#7C47AA" transform="translate(274,249)"/>
</svg>
